<?xml version="1.0" standalone="no"?>
<!DOCTYPE svg PUBLIC "-//W3C//DTD SVG 20010904//EN"
 "http://www.w3.org/TR/2001/REC-SVG-20010904/DTD/svg10.dtd">
<svg version="1.0" xmlns="http://www.w3.org/2000/svg"
 width="105.000000pt" height="105.000000pt" viewBox="0 0 105.000000 105.000000"
 preserveAspectRatio="xMidYMid meet">
<metadata>
Created by potrace 1.14, written by Peter Selinger 2001-2017
</metadata>
<g transform="translate(0.000000,105.000000) scale(0.100000,-0.100000)"
fill="#000000" stroke="none">
<path d="M370 975 c0 -20 -5 -25 -25 -25 -20 0 -25 -5 -25 -25 0 -20 -5 -25
-25 -25 l-25 0 0 -150 0 -150 -25 0 c-20 0 -25 -5 -25 -25 0 -20 -5 -25 -25
-25 l-25 0 0 -100 0 -100 25 0 25 0 0 -150 0 -150 50 0 c47 0 50 2 50 25 0 23
3 25 50 25 47 0 50 2 50 25 l0 25 225 0 225 0 0 125 0 125 -25 0 c-20 0 -25 5
-25 25 0 20 -5 25 -25 25 -20 0 -25 -5 -25 -25 0 -20 -5 -25 -25 -25 -23 0
-25 3 -25 50 l0 50 50 0 50 0 0 225 0 225 -25 0 c-20 0 -25 5 -25 25 l0 25
-200 0 -200 0 0 -25z m400 -75 c0 -47 -2 -50 -25 -50 -20 0 -25 -5 -25 -25 0
-20 -5 -25 -25 -25 -20 0 -25 -5 -25 -25 0 -20 -5 -25 -25 -25 -20 0 -25 -5
-25 -25 0 -20 5 -25 25 -25 20 0 25 -5 25 -25 0 -24 -2 -25 -75 -25 -73 0 -75
-1 -75 -25 0 -24 2 -25 75 -25 73 0 75 -1 75 -25 0 -23 -3 -25 -50 -25 -47 0
-50 -2 -50 -25 0 -24 -2 -25 -75 -25 -73 0 -75 1 -75 25 0 20 -5 25 -25 25
-20 0 -25 5 -25 25 0 20 -5 25 -25 25 l-25 0 0 150 0 150 25 0 c20 0 25 5 25
25 l0 25 200 0 200 0 0 -50z m-400 -500 l0 -50 -75 0 -75 0 0 50 0 50 75 0 75
0 0 -50z m150 25 c0 -20 -5 -25 -25 -25 -20 0 -25 5 -25 25 0 20 5 25 25 25
20 0 25 -5 25 -25z m100 0 c0 -20 -5 -25 -25 -25 -20 0 -25 5 -25 25 0 20 5
25 25 25 20 0 25 -5 25 -25z"/>
<path d="M520 725 c0 -20 5 -25 25 -25 20 0 25 5 25 25 0 20 -5 25 -25 25 -20
0 -25 -5 -25 -25z"/>
</g>
</svg>
